<svg xmlns="http://www.w3.org/2000/svg" viewBox="0 0 228.534 61.647" aria-label="Mdaddy">
<path d="M 46.734 7.86 C 44.945 6.171 43.157 4.41 41.582 2.49 L 11.571 2.49 C 6.588 2.49 2.512 6.566 2.512 11.548 L 2.512 50.159 C 2.512 55.141 6.588 59.217 11.571 59.217 L 44.501 59.217 C 49.483 59.217 53.559 55.141 53.559 50.159 L 53.559 13.72 C 51.134 11.957 48.908 9.913 46.734 7.86" fill="#ffffff"/>
<path d="M 4.096 9.405 L 4.09 52.153 C 4.375 54.112 5.412 55.754 7.066 56.759 C 7.694 57.074 8.283 57.395 8.986 57.496 L 9.864 57.623 L 12.036 57.615 L 44.07 57.654 C 44.567 57.654 45.066 58.115 45.288 58.438 C 45.837 59.238 45.759 60.224 45.192 60.923 C 44.892 61.293 44.559 61.571 44.109 61.571 C 41.237 61.571 9.984 61.647 9.984 61.647 L 8.951 61.543 C 8.168 61.465 7.378 61.343 6.639 61.079 C 5.14 60.543 3.312 59.34 2.345 58.1 L 1.777 57.371 L 1.276 56.573 L 0.916 55.909 C 0.519 54.855 0 53.773 0 52.552 L 0.012 9.307 C 0.013 7.468 0.775 5.743 1.759 4.28 C 3.298 1.99 6.359 0.026 9.072 0.024 L 39.403 0.001 C 40.212 0 40.877 0.303 41.421 0.802 L 54.261 12.95 C 54.896 13.588 55.753 15.097 55.753 15.967 L 55.757 37.828 C 55.757 38.514 55.131 39.531 54.363 39.744 C 53.724 39.922 53.105 39.864 52.583 39.496 C 52.121 39.17 51.758 38.634 51.758 37.936 L 51.762 16.164 C 51.762 15.116 51.093 14.228 50.064 14.085 L 43.229 14.035 C 41.294 14.029 39.378 12.231 39.375 10.371 L 39.367 4.725 C 39.367 4.357 39.134 4.01 38.699 4.011 L 9.669 4.029 C 8.302 4.03 7.112 4.729 6.127 5.545 L 5.147 6.654 C 4.724 7.132 4.096 8.728 4.096 9.405" fill="#252e32"/>
<path d="M 40.453 44.833 C 41.931 44.266 41.806 43.85 42.128 42.557 L 42.818 39.805 L 43.32 38.077 C 43.544 37.308 45.03 36.869 45.83 37.655 C 46.166 37.984 46.279 38.462 46.488 38.876 L 48.05 41.975 L 49.485 44.83 L 49.872 45.604 L 53.311 52.361 C 53.635 52.999 53.517 53.78 53.123 54.226 C 52.646 54.768 51.928 54.936 51.255 54.698 L 48.267 53.645 L 46.334 52.997 L 45.156 52.594 L 43.166 51.882 L 40.644 51.037 L 37.557 49.962 L 35.786 49.366 C 35.309 49.206 34.994 48.546 34.982 48.028 C 34.971 47.532 35.316 46.955 35.763 46.769 L 39.644 45.144 L 40.453 44.833" fill="#22a491"/>
<path d="M 28.021 18.882 C 28.708 20.255 29.492 21.774 29.541 21.823 L 30.816 24.274 L 33.315 29.225 L 35.644 33.857 C 36.673 35.818 36.625 36.112 35.031 37.656 L 34.615 38.072 C 33.071 39.666 32.776 39.715 30.815 38.685 L 26.11 36.382 L 21.159 33.931 C 20.326 33.489 19.517 33.073 18.708 32.656 C 18.488 32.533 17.164 31.847 15.767 31.185 C 16.943 32.215 17.777 32.999 18.144 33.318 C 21.821 36.602 22.703 37.386 24.1 38.783 L 26.992 41.675 C 28.781 43.318 28.781 44.052 26.992 45.695 L 26.698 45.989 C 25.056 47.778 24.321 47.778 22.678 45.989 L 10.35 33.661 C 8.561 32.019 8.561 31.283 10.35 29.642 L 13.488 26.505 C 15.056 24.886 15.301 24.838 17.287 25.892 L 21.379 27.975 C 23.095 28.857 25.644 30.23 29.001 32.068 L 27.776 29.96 C 26.281 27.387 26.085 27.044 24.811 24.592 L 22.678 20.549 C 21.6 18.588 21.625 18.269 23.267 16.725 L 26.551 13.441 C 28.193 11.652 28.928 11.652 30.57 13.441 L 42.898 25.769 C 44.688 27.411 44.687 28.147 42.898 29.788 L 42.604 30.083 C 40.962 31.872 40.227 31.872 38.584 30.083 L 35.693 27.191 C 34.345 25.842 33.315 24.715 30.914 22.068 C 30.276 21.333 29.737 20.745 29.32 20.279 L 28.021 18.882" fill="#22a491"/>
<path d="M 171.382 35.179 C 171.382 32.234 168.993 29.846 166.046 29.846 C 163.1 29.846 160.711 32.234 160.711 35.179 C 160.711 38.124 163.1 40.512 166.046 40.512 C 168.993 40.512 171.382 38.124 171.382 35.179 M 171.401 45.373 L 171.375 43.926 C 169.938 45.195 168.362 45.923 166.454 46.151 C 162.04 46.678 157.846 44.417 155.782 40.454 C 154.004 37.037 154.081 32.991 155.914 29.615 C 159.116 24.006 166.33 22.091 171.389 26.336 L 171.39 16.027 C 171.39 15.611 171.748 15.188 172.163 15.187 L 177.098 15.179 C 177.545 15.178 177.899 15.56 177.901 16.026 L 177.963 29.842 L 177.962 39.791 L 177.893 45.239 C 177.887 45.69 177.55 46.088 177.1 46.089 L 172.152 46.093 C 171.824 46.093 171.405 45.677 171.401 45.373" fill="#000000"/>
<path d="M 146.164 35.181 C 146.164 32.215 143.759 29.811 140.791 29.811 C 137.824 29.811 135.419 32.215 135.419 35.181 C 135.419 38.146 137.824 40.55 140.791 40.55 C 143.759 40.55 146.164 38.146 146.164 35.181 M 152.838 40.14 L 152.786 45.244 C 152.782 45.669 152.425 46.087 151.991 46.087 L 147.052 46.089 C 146.602 46.089 146.216 45.685 146.213 45.263 L 146.203 43.91 C 144.893 44.977 143.659 45.632 142.122 45.973 C 136.226 47.281 130.484 43.598 129.148 37.712 C 127.963 32.491 130.528 27.108 135.443 24.939 C 139.069 23.339 143.199 23.835 146.204 26.315 L 146.211 24.805 C 146.212 24.536 146.598 24.11 146.916 24.108 L 151.825 24.075 C 152.371 24.071 152.774 24.46 152.781 25.015 L 152.845 29.861 L 152.838 40.14" fill="#000000"/>
<path d="M 196.173 35.181 C 196.173 32.25 193.795 29.874 190.862 29.874 C 187.93 29.874 185.552 32.25 185.552 35.181 C 185.552 38.112 187.93 40.488 190.862 40.488 C 193.795 40.488 196.173 38.112 196.173 35.181 M 196.182 45.501 L 196.145 43.936 C 192.049 47.593 185.746 46.728 182.173 42.653 C 178.871 38.889 178.452 33.425 181.043 29.156 C 184.362 23.895 191.305 22.217 196.165 26.323 L 196.161 16.023 C 196.16 15.584 196.527 15.187 196.956 15.186 L 201.895 15.18 C 202.314 15.18 202.699 15.568 202.701 16.031 L 202.76 30.106 L 202.77 39.696 L 202.691 45.08 C 202.683 45.591 202.446 46.079 201.885 46.081 L 196.946 46.095 C 196.703 46.096 196.188 45.767 196.182 45.501" fill="#000000"/>
<path d="M 217.275 50.666 C 216.104 53.361 213.221 54.965 210.439 54.989 L 206.591 55.022 C 206.114 55.026 205.754 54.559 205.758 54.081 L 205.802 49.183 C 206.813 48.233 208.914 49.454 210.739 47.93 C 211.641 47.177 212.173 46.115 212.403 44.964 L 204.052 24.884 C 203.87 24.444 204.368 24.097 204.698 24.098 L 210.096 24.101 C 210.381 24.122 210.826 24.356 210.943 24.646 L 216.051 37.301 L 221.168 25.058 C 221.411 24.477 221.688 24.058 222.413 24.096 L 227.923 24.1 C 228.041 24.1 228.336 24.223 228.407 24.31 C 228.496 24.418 228.534 24.756 228.461 24.924 L 217.275 50.666" fill="#000000"/>
<path d="M 93.999 45.127 L 93.862 29.732 L 86.379 43.266 C 86.172 43.641 85.739 43.965 85.358 43.966 L 82.773 43.977 C 82.344 43.978 81.876 43.764 81.653 43.365 L 74.095 29.777 L 73.997 45.229 C 73.994 45.686 73.631 46.084 73.188 46.085 L 67.929 46.089 C 67.612 46.089 67.165 45.739 67.165 45.345 L 67.161 18.255 C 67.161 17.701 67.374 17.162 67.981 17.159 L 73.967 17.137 C 74.406 17.163 74.869 17.356 75.089 17.755 L 84.015 33.971 L 92.788 17.823 C 93.029 17.379 93.522 17.163 94.002 17.136 L 100.158 17.166 C 100.59 17.168 100.946 17.638 100.946 18.111 L 100.944 45.179 C 100.944 45.741 100.523 46.086 100.026 46.086 L 94.953 46.09 C 94.389 46.091 94.006 45.813 93.999 45.127" fill="#000000"/>
<path d="M 120.291 35.183 C 120.291 32.254 117.915 29.879 114.984 29.879 C 112.054 29.879 109.678 32.254 109.678 35.183 C 109.678 38.112 112.054 40.487 114.984 40.487 C 117.915 40.487 120.291 38.112 120.291 35.183 M 121.077 46.09 C 120.543 46.09 120.292 45.63 120.28 45.245 L 120.243 43.946 C 116.575 47.221 110.988 46.846 107.327 43.718 C 104.397 41.216 102.993 37.427 103.551 33.494 C 104.045 30.016 106.303 26.681 109.68 25.064 C 113.205 23.376 117.214 23.718 120.27 26.321 L 120.281 16.054 C 120.281 15.568 120.687 15.182 121.153 15.182 L 126.093 15.182 C 126.521 15.182 126.853 15.59 126.854 16.039 L 126.904 29.752 L 126.907 40.01 L 126.847 45.232 C 126.843 45.639 126.518 46.084 126.093 46.084 L 121.077 46.09" fill="#000000"/>
<path d="M 120.291 35.183 C 120.291 38.112 117.915 40.487 114.984 40.487 C 112.054 40.487 109.678 38.112 109.678 35.183 C 109.678 32.254 112.054 29.879 114.984 29.879 C 117.915 29.879 120.291 32.254 120.291 35.183" fill="#ffffff"/>
<path d="M 196.173 35.181 C 196.173 38.112 193.795 40.488 190.862 40.488 C 187.93 40.488 185.552 38.112 185.552 35.181 C 185.552 32.25 187.93 29.874 190.862 29.874 C 193.795 29.874 196.173 32.25 196.173 35.181" fill="#ffffff"/>
<path d="M 146.164 35.181 C 146.164 38.146 143.759 40.55 140.791 40.55 C 137.824 40.55 135.419 38.146 135.419 35.181 C 135.419 32.215 137.824 29.811 140.791 29.811 C 143.759 29.811 146.164 32.215 146.164 35.181" fill="#ffffff"/>
</svg>
